<?xml version="1.0" encoding="utf-8"?>
<!-- Generator: Adobe Illustrator 23.0.2, SVG Export Plug-In . SVG Version: 6.00 Build 0)  -->
<svg version="1.1" id="Layer_1" xmlns="http://www.w3.org/2000/svg" xmlns:xlink="http://www.w3.org/1999/xlink" x="0px" y="0px"
	 viewBox="0 0 1311 536.4" style="enable-background:new 0 0 1311 536.4;" xml:space="preserve">
<style type="text/css">
	.st0{opacity:0.6;}
	.st1{fill:#F3FBFF;}
	.st2{opacity:0.1;}
	.st3{opacity:0.25;}
	.st4{fill:#D10869;}
	.st5{fill:#3B3B3B;}
	.st6{fill:#FF7180;}
	.st7{fill:url(#SVGID_1_);}
	.st8{fill:url(#SVGID_2_);}
	.st9{fill:#7CAAFF;}
	.st10{fill:url(#SVGID_3_);}
	.st11{fill:#76417F;}
	.st12{fill:#FAC480;}
</style>
<g class="st0">
	<rect y="0" class="st1" width="1311" height="536.4"/>
	<g class="st2">
		<g class="st3">
			<path class="st4" d="M961.8,483.7c-6.8-17.7-8.7-36.5,10.9-45.2c14.6-6.5,26.7,1.3,41.6,3.7c16.9,2.7,34-1.7,46.5-13.7
				c23.8-22.8,21.2-72.3-14.1-81.9c-8.8-2.4-18.3,8.1-12.6,16.4c6.9,10,18,20.5,14.9,34c-4.6,20.3-26.9,19.3-42.2,15.8
				c-17.4-4-33.2-6.8-49.6,2.5c-27.7,15.6-36.3,56-9.8,76.9C953.3,496.7,965.2,492.7,961.8,483.7L961.8,483.7z"/>
		</g>
		<g>
			<path class="st4" d="M959.4,481.3c-6.8-17.7-8.7-36.5,10.9-45.2c14.6-6.5,26.7,1.3,41.6,3.7c16.9,2.7,34-1.7,46.5-13.7
				c23.8-22.8,21.2-72.3-14.1-81.9c-8.8-2.4-18.3,8.1-12.6,16.4c6.9,10,18,20.5,14.9,34c-4.6,20.3-26.9,19.3-42.2,15.8
				c-17.4-4-33.2-6.8-49.6,2.5c-27.7,15.6-36.3,56-9.8,76.9C951,494.3,962.9,490.3,959.4,481.3L959.4,481.3z"/>
		</g>
	</g>
	<g class="st2">
		<g class="st3">
			<path class="st5" d="M44.8,350.1c-4.4-11.5-5.7-23.7,7.1-29.4c9.5-4.2,17.4,0.8,27,2.4c11,1.7,22.1-1.1,30.2-8.9
				c15.5-14.8,13.7-47-9.2-53.2c-5.7-1.6-11.9,5.3-8.2,10.6c4.5,6.5,11.7,13.3,9.7,22.1C98.5,307,84,306.3,74.1,304
				c-11.3-2.6-21.6-4.4-32.2,1.6c-18,10.1-23.6,36.4-6.4,49.9C39.3,358.6,47,356,44.8,350.1L44.8,350.1z"/>
		</g>
		<g>
			<path class="st6" d="M43.3,348.6c-4.4-11.5-5.7-23.7,7.1-29.4c9.5-4.2,17.4,0.8,27,2.4c11,1.7,22.1-1.1,30.2-8.9
				c15.5-14.8,13.7-47-9.2-53.2c-5.7-1.6-11.9,5.3-8.2,10.6c4.5,6.5,11.7,13.3,9.7,22.1c-3,13.2-17.5,12.5-27.4,10.2
				c-11.3-2.6-21.6-4.4-32.2,1.6c-18,10.1-23.6,36.4-6.4,49.9C37.8,357,45.5,354.5,43.3,348.6L43.3,348.6z"/>
		</g>
	</g>
	<g class="st2">
		<g class="st3">
			<path class="st4" d="M330,386c-38,5.5-64.2,40.2-49.4,78.8c13.8,36,60.9,53.2,93.9,32.7c30.6-19,40.2-64,19.1-93.4
				c-20.4-28.4-71.6-38.7-94.7-8.4c-7.3,9.5,4.8,23.6,15.4,20.1c18.6-6.2,36-14.2,53.3,1.1c16.1,14.4,12.1,41.9-4.1,54.7
				c-17.2,13.7-45.1,5.6-55.5-12.9c-11.5-20.5,3.1-55.3,24.4-63.9C337.8,392.5,335.8,385.2,330,386L330,386z"/>
		</g>
		<g>
			<path class="st4" d="M327.6,383.7c-38,5.5-64.2,40.2-49.4,78.8c13.8,36,60.9,53.2,93.9,32.7c30.6-19,40.2-64,19.1-93.4
				c-20.4-28.4-71.6-38.7-94.7-8.4c-7.3,9.5,4.8,23.6,15.4,20.1c18.6-6.2,36-14.2,53.3,1.1c16.1,14.4,12.1,41.9-4.1,54.7
				c-17.2,13.7-45.1,5.6-55.5-12.9c-11.5-20.5,3.1-55.3,24.4-63.9C335.4,390.2,333.4,382.8,327.6,383.7L327.6,383.7z"/>
		</g>
	</g>
	<g class="st2">
		<g class="st3">
			<linearGradient id="SVGID_1_" gradientUnits="userSpaceOnUse" x1="607.6393" y1="127.3578" x2="736.1451" y2="127.3578">
				<stop  offset="1.104800e-03" style="stop-color:#FBE18A"/>
				<stop  offset="0.2094" style="stop-color:#FCBB45"/>
				<stop  offset="0.3765" style="stop-color:#F75274"/>
				<stop  offset="0.5238" style="stop-color:#D53692"/>
				<stop  offset="0.7394" style="stop-color:#8F39CE"/>
				<stop  offset="1" style="stop-color:#5B4FE9"/>
			</linearGradient>
			<path class="st7" d="M661.2,71.6c-38,5.5-64.2,40.2-49.4,78.8c13.8,36,60.9,53.2,93.9,32.7c30.6-19,40.2-64,19.1-93.4
				c-20.4-28.4-71.6-38.7-94.7-8.4c-7.3,9.5,4.8,23.6,15.4,20.1c18.6-6.2,36-14.2,53.3,1.1c16.1,14.4,12.1,41.9-4.1,54.7
				c-17.2,13.7-45.1,5.6-55.5-12.9c-11.5-20.5,3.1-55.3,24.4-63.9C669,78.1,667,70.7,661.2,71.6L661.2,71.6z"/>
		</g>
		<g>
			<linearGradient id="SVGID_2_" gradientUnits="userSpaceOnUse" x1="605.2869" y1="125.0054" x2="733.7927" y2="125.0054">
				<stop  offset="1.104800e-03" style="stop-color:#FBE18A"/>
				<stop  offset="0.2094" style="stop-color:#FCBB45"/>
				<stop  offset="0.3765" style="stop-color:#F75274"/>
				<stop  offset="0.5238" style="stop-color:#D53692"/>
				<stop  offset="0.7394" style="stop-color:#8F39CE"/>
				<stop  offset="1" style="stop-color:#5B4FE9"/>
			</linearGradient>
			<path class="st8" d="M658.9,69.2c-38,5.5-64.2,40.2-49.4,78.8c13.8,36,60.9,53.2,93.9,32.7c30.6-19,40.2-64,19.1-93.4
				c-20.4-28.4-71.6-38.7-94.7-8.4c-7.3,9.5,4.8,23.6,15.4,20.1c18.6-6.2,36-14.2,53.3,1.1c16.1,14.4,12.1,41.9-4.1,54.7
				c-17.2,13.7-45.1,5.6-55.5-12.9c-11.5-20.5,3.1-55.3,24.4-63.9C666.7,75.7,664.6,68.4,658.9,69.2L658.9,69.2z"/>
		</g>
	</g>
	<g class="st2">
		<g class="st3">
			<path class="st5" d="M410.3,271.8c-12.6,1.8-21.3,13.3-16.4,26.1c4.6,11.9,20.2,17.6,31.1,10.8c10.1-6.3,13.3-21.2,6.3-30.9
				c-6.8-9.4-23.7-12.8-31.3-2.8c-2.4,3.2,1.6,7.8,5.1,6.6c6.2-2.1,11.9-4.7,17.7,0.4c5.3,4.8,4,13.9-1.4,18.1
				c-5.7,4.5-14.9,1.9-18.4-4.3c-3.8-6.8,1-18.3,8.1-21.2C412.9,273.9,412.2,271.5,410.3,271.8L410.3,271.8z"/>
		</g>
		<g>
			<path class="st9" d="M409.5,271c-12.6,1.8-21.3,13.3-16.4,26.1c4.6,11.9,20.2,17.6,31.1,10.8c10.1-6.3,13.3-21.2,6.3-30.9
				c-6.8-9.4-23.7-12.8-31.3-2.8c-2.4,3.2,1.6,7.8,5.1,6.6c6.2-2.1,11.9-4.7,17.7,0.4c5.3,4.8,4,13.9-1.4,18.1
				c-5.7,4.5-14.9,1.9-18.4-4.3c-3.8-6.8,1-18.3,8.1-21.2C412.1,273.1,411.4,270.7,409.5,271L409.5,271z"/>
		</g>
	</g>
	<g class="st2">
		<g class="st3">
			<path class="st5" d="M1020.9,132.7c22.6,31.7,46.8,76.4,80.3,98.1c40.7,26.4,51.3-25.8,58.9-54.5c7.2-26.9,34.8-86.1-6.8-99
				c-18.5-5.7-40.7,4.9-58.1,10.1c-25.1,7.5-50.3,15-75.4,22.4c-25.4,7.5-12.8,47.5,12.3,39.2c18.7-6.2,37.3-12.3,56-18.5
				c10.5-3.5,47.5-21.9,57.8-14.7c-3.1-3.6-6.1-7.3-9.2-10.9c6.2,13.9-7.3,45.1-10.7,59c-2.3,9.5-5.5,19.2-6.9,28.8
				c-2.3,15.6-1.6,7.7-11.1-0.9c-25.7-23.3-49.6-46.6-78-66.8C1025,121.5,1016.5,126.6,1020.9,132.7L1020.9,132.7z"/>
		</g>
		<g>
			<g>
				<linearGradient id="SVGID_3_" gradientUnits="userSpaceOnUse" x1="1003.9288" y1="154.8329" x2="1173.7229" y2="154.8329">
					<stop  offset="0" style="stop-color:#5B4FE9"/>
					<stop  offset="0.2606" style="stop-color:#8F39CE"/>
					<stop  offset="0.4762" style="stop-color:#D53692"/>
					<stop  offset="0.6235" style="stop-color:#F75274"/>
					<stop  offset="0.7906" style="stop-color:#FCBB45"/>
					<stop  offset="0.9989" style="stop-color:#FBE18A"/>
				</linearGradient>
				<path class="st10" d="M1018.9,130.7c22.6,31.7,46.8,76.4,80.3,98.1c40.7,26.4,51.3-25.8,58.9-54.5c7.2-26.9,34.8-86.1-6.8-99
					c-18.5-5.7-40.7,4.9-58.1,10.1c-25.1,7.5-50.3,15-75.4,22.4c-25.4,7.5-12.8,47.5,12.3,39.2c18.7-6.2,37.3-12.3,56-18.5
					c10.5-3.5,47.5-21.9,57.8-14.7c-3.1-3.6-6.1-7.3-9.2-10.9c6.2,13.9-7.3,45.1-10.7,59c-2.3,9.5-5.5,19.2-6.9,28.8
					c-2.3,15.6-1.6,7.7-11.1-0.9c-25.7-23.3-49.6-46.6-78-66.8C1023,119.5,1014.5,124.6,1018.9,130.7L1018.9,130.7z"/>
			</g>
		</g>
	</g>
	<g class="st2">
		<g class="st3">
			<path class="st5" d="M819.3,305.7c6,8.5,12.5,20.4,21.4,26.2c10.9,7,13.7-6.9,15.7-14.5c1.9-7.2,9.3-23-1.8-26.4
				c-4.9-1.5-10.9,1.3-15.5,2.7c-6.7,2-13.4,4-20.1,6c-6.8,2-3.4,12.7,3.3,10.5c5-1.6,10-3.3,14.9-4.9c2.8-0.9,12.7-5.9,15.4-3.9
				c-0.8-1-1.6-1.9-2.4-2.9c1.6,3.7-2,12-2.9,15.8c-0.6,2.5-1.5,5.1-1.8,7.7c-0.6,4.2-0.4,2.1-3-0.2c-6.9-6.2-13.2-12.4-20.8-17.8
				C820.5,302.7,818.2,304,819.3,305.7L819.3,305.7z"/>
		</g>
		<g>
			<g>
				<path class="st11" d="M818.8,305.1c6,8.5,12.5,20.4,21.4,26.2c10.9,7,13.7-6.9,15.7-14.5c1.9-7.2,9.3-23-1.8-26.4
					c-4.9-1.5-10.9,1.3-15.5,2.7c-6.7,2-13.4,4-20.1,6c-6.8,2-3.4,12.7,3.3,10.5c5-1.6,10-3.3,14.9-4.9c2.8-0.9,12.7-5.9,15.4-3.9
					c-0.8-1-1.6-1.9-2.4-2.9c1.6,3.7-2,12-2.9,15.8c-0.6,2.5-1.5,5.1-1.8,7.7c-0.6,4.2-0.4,2.1-3-0.2c-6.9-6.2-13.2-12.4-20.8-17.8
					C819.9,302.2,817.6,303.5,818.8,305.1L818.8,305.1z"/>
			</g>
		</g>
	</g>
	<g class="st2">
		<g class="st3">
			<path class="st5" d="M133.8,118.5c22.6,31.7,46.8,76.4,80.3,98.1c40.7,26.4,51.3-25.8,58.9-54.5c7.2-26.9,34.8-86.1-6.8-99
				c-18.6-5.7-40.7,4.9-58.1,10.1c-25.1,7.5-50.3,15-75.4,22.4c-25.4,7.5-12.8,47.5,12.3,39.2c18.7-6.2,37.3-12.3,56-18.5
				c10.5-3.5,47.5-21.9,57.8-14.7c-3.1-3.6-6.1-7.3-9.2-10.9c6.2,13.9-7.3,45.1-10.7,59c-2.3,9.5-5.5,19.2-6.9,28.8
				c-2.3,15.6-1.6,7.7-11.1-0.9c-25.7-23.3-49.6-46.6-78-66.8C138,107.3,129.4,112.4,133.8,118.5L133.8,118.5z"/>
		</g>
		<g>
			<g>
				<path class="st4" d="M131.8,116.5c22.6,31.7,46.8,76.4,80.3,98.1c40.7,26.4,51.3-25.8,58.9-54.5c7.2-26.9,34.8-86.1-6.8-99
					c-18.6-5.7-40.7,4.9-58.1,10.1c-25.1,7.5-50.3,15-75.4,22.4c-25.4,7.5-12.8,47.5,12.3,39.2c18.7-6.2,37.3-12.3,56-18.5
					c10.5-3.5,47.5-21.9,57.8-14.7c-3.1-3.6-6.1-7.3-9.2-10.9c6.2,13.9-7.3,45.1-10.7,59c-2.3,9.5-5.5,19.2-6.9,28.8
					c-2.3,15.6-1.6,7.7-11.1-0.9c-25.7-23.3-49.6-46.6-78-66.8C136,105.3,127.4,110.4,131.8,116.5L131.8,116.5z"/>
			</g>
		</g>
	</g>
	<g class="st2">
		<g class="st3">
			<path class="st5" d="M617.3,420.6c11.1,15.5,22.9,37.3,39.2,47.9c19.9,12.9,25.1-12.6,28.8-26.6c3.5-13.2,17-42.1-3.3-48.4
				c-9.1-2.8-19.9,2.4-28.4,4.9c-12.3,3.7-24.6,7.3-36.8,11c-12.4,3.7-6.2,23.2,6,19.2c9.1-3,18.2-6,27.4-9
				c5.1-1.7,23.2-10.7,28.2-7.2c-1.5-1.8-3-3.6-4.5-5.3c3,6.8-3.6,22-5.2,28.8c-1.1,4.6-2.7,9.4-3.4,14.1c-1.1,7.6-0.8,3.8-5.4-0.5
				c-12.6-11.4-24.2-22.8-38.1-32.6C619.3,415.2,615.2,417.6,617.3,420.6L617.3,420.6z"/>
		</g>
		<g>
			<g>
				<path class="st12" d="M616.3,419.7c11.1,15.5,22.9,37.3,39.2,47.9c19.9,12.9,25.1-12.6,28.8-26.6c3.5-13.2,17-42.1-3.3-48.4
					c-9.1-2.8-19.9,2.4-28.4,4.9c-12.3,3.7-24.6,7.3-36.8,11c-12.4,3.7-6.2,23.2,6,19.2c9.1-3,18.2-6,27.4-9
					c5.1-1.7,23.2-10.7,28.2-7.2c-1.5-1.8-3-3.6-4.5-5.3c3,6.8-3.6,22-5.2,28.8c-1.1,4.6-2.7,9.4-3.4,14.1c-1.1,7.6-0.8,3.8-5.4-0.5
					c-12.6-11.4-24.2-22.8-38.1-32.6C618.4,414.2,614.2,416.7,616.3,419.7L616.3,419.7z"/>
			</g>
		</g>
	</g>
</g>
</svg>
